<?xml version="1.0" encoding="UTF-8" standalone="no"?>
<!-- Uploaded to: SVG Repo, www.svgrepo.com, Generator: SVG Repo Mixer Tools -->

<svg
   fill="currentColor"
   width="800px"
   height="800px"
   viewBox="0 -8 72 72"
   id="Layer_1"
   data-name="Layer 1"
   version="1.1"
   sodipodi:docname="file-archive.svg"
   inkscape:version="1.2.1 (9c6d41e410, 2022-07-14)"
   xmlns:inkscape="http://www.inkscape.org/namespaces/inkscape"
   xmlns:sodipodi="http://sodipodi.sourceforge.net/DTD/sodipodi-0.dtd"
   xmlns="http://www.w3.org/2000/svg"
   xmlns:svg="http://www.w3.org/2000/svg">
  <defs
     id="defs9" />
  <sodipodi:namedview
     id="namedview7"
     pagecolor="#505050"
     bordercolor="#eeeeee"
     borderopacity="1"
     inkscape:showpageshadow="0"
     inkscape:pageopacity="0"
     inkscape:pagecheckerboard="0"
     inkscape:deskcolor="#505050"
     showgrid="false"
     inkscape:zoom="1.4796209"
     inkscape:cx="356.84815"
     inkscape:cy="435.24661"
     inkscape:window-width="1920"
     inkscape:window-height="1017"
     inkscape:window-x="3832"
     inkscape:window-y="-8"
     inkscape:window-maximized="1"
     inkscape:current-layer="Layer_1" />
  <title
     id="title2">file-o</title>
  <path
     d="M46.92,0H18.74A3.44,3.44,0,0,0,15.3,3.43V52.57A3.44,3.44,0,0,0,18.74,56H53.26a3.44,3.44,0,0,0,3.44-3.43V10.62Zm.81,5.14L52,9.79H47.73Zm6.08,47.43a.55.55,0,0,1-.55.55H18.74a.55.55,0,0,1-.55-.55V3.43a.54.54,0,0,1,.55-.54H44.85v8.35a1.45,1.45,0,0,0,1.44,1.44h7.52Z"
     id="path4" />
  <rect
     style="fill:#000000;stroke-width:0.0698138"
     id="rect451"
     width="3.301497"
     height="3.301497"
     x="24.688171"
     y="2.8387101" />
  <rect
     style="fill:#000000;stroke-width:0.0698138"
     id="rect459"
     width="3.301497"
     height="3.301497"
     x="27.981779"
     y="6.1125965" />
  <rect
     style="fill:#000000;stroke-width:0.0698138"
     id="rect461"
     width="3.301497"
     height="3.301497"
     x="24.707893"
     y="9.3864822" />
  <rect
     style="fill:#000000;stroke-width:0.0698138"
     id="rect463"
     width="3.301497"
     height="3.301497"
     x="28.001501"
     y="12.640647" />
  <rect
     style="fill:#000000;stroke-width:0.0698138"
     id="rect465"
     width="3.301497"
     height="3.301497"
     x="24.727615"
     y="15.914534" />
  <rect
     style="fill:#000000;stroke-width:0.0698138"
     id="rect467"
     width="3.301497"
     height="3.301497"
     x="28.001501"
     y="19.188421" />
  <rect
     style="fill:#000000;stroke-width:0.0698138"
     id="rect471"
     width="3.301497"
     height="3.301497"
     x="24.727615"
     y="22.469015" />
  <rect
     style="fill:#000000;stroke-width:0.0698138"
     id="rect473"
     width="3.301497"
     height="3.301497"
     x="28.001501"
     y="25.742903" />
</svg>
