<?xml version="1.0" encoding="UTF-8" standalone="no"?>
<!-- Uploaded to: SVG Repo, www.svgrepo.com, Generator: SVG Repo Mixer Tools -->

<svg
   fill="currentColor"
   width="800px"
   height="800px"
   viewBox="0 -8 72 72"
   id="Layer_1"
   data-name="Layer 1"
   version="1.1"
   sodipodi:docname="file-image.svg"
   inkscape:version="1.2.1 (9c6d41e410, 2022-07-14)"
   xmlns:inkscape="http://www.inkscape.org/namespaces/inkscape"
   xmlns:sodipodi="http://sodipodi.sourceforge.net/DTD/sodipodi-0.dtd"
   xmlns="http://www.w3.org/2000/svg"
   xmlns:svg="http://www.w3.org/2000/svg">
  <defs
     id="defs9" />
  <sodipodi:namedview
     id="namedview7"
     pagecolor="#505050"
     bordercolor="#eeeeee"
     borderopacity="1"
     inkscape:showpageshadow="0"
     inkscape:pageopacity="0"
     inkscape:pagecheckerboard="0"
     inkscape:deskcolor="#505050"
     showgrid="false"
     inkscape:zoom="0.36990524"
     inkscape:cx="16.220371"
     inkscape:cy="224.38179"
     inkscape:window-width="1920"
     inkscape:window-height="1017"
     inkscape:window-x="1912"
     inkscape:window-y="-8"
     inkscape:window-maximized="1"
     inkscape:current-layer="Layer_1" />
  <title
     id="title2">file-o</title>
  <path
     d="M46.92,0H18.74A3.44,3.44,0,0,0,15.3,3.43V52.57A3.44,3.44,0,0,0,18.74,56H53.26a3.44,3.44,0,0,0,3.44-3.43V10.62Zm.81,5.14L52,9.79H47.73Zm6.08,47.43a.55.55,0,0,1-.55.55H18.74a.55.55,0,0,1-.55-.55V3.43a.54.54,0,0,1,.55-.54H44.85v8.35a1.45,1.45,0,0,0,1.44,1.44h7.52Z"
     id="path4" />
  <path
     style="fill:#000000;stroke-width:0.09"
     d="m 17.512755,40.711359 12.043011,-12.258065 9.647378,8.503903 5.134305,-5.27683 9.863479,7.955723 0.129033,3.784947 -9.949502,-8.084756 -5.091294,5.190808 -9.733399,-8.37487 -11.784946,12.129032"
     id="path169"
     sodipodi:nodetypes="cccccccccc" />
  <circle
     style="fill:#000000;stroke-width:0.158333"
     id="path373"
     cx="40.417343"
     cy="27.541691"
     r="2.8892536" />
</svg>
