<?xml version="1.0" encoding="UTF-8" standalone="no"?>
<!-- Uploaded to: SVG Repo, www.svgrepo.com, Generator: SVG Repo Mixer Tools -->

<svg
   fill="currentColor"
   width="800px"
   height="800px"
   viewBox="0 -8 72 72"
   id="Layer_1"
   data-name="Layer 1"
   version="1.1"
   sodipodi:docname="file-document.svg"
   inkscape:version="1.2.1 (9c6d41e410, 2022-07-14)"
   xmlns:inkscape="http://www.inkscape.org/namespaces/inkscape"
   xmlns:sodipodi="http://sodipodi.sourceforge.net/DTD/sodipodi-0.dtd"
   xmlns="http://www.w3.org/2000/svg"
   xmlns:svg="http://www.w3.org/2000/svg"
   xmlns:rdf="http://www.w3.org/1999/02/22-rdf-syntax-ns#"
   xmlns:cc="http://creativecommons.org/ns#"
   xmlns:dc="http://purl.org/dc/elements/1.1/">
  <defs
     id="defs9" />
  <sodipodi:namedview
     id="namedview7"
     pagecolor="#505050"
     bordercolor="#eeeeee"
     borderopacity="1"
     inkscape:showpageshadow="0"
     inkscape:pageopacity="0"
     inkscape:pagecheckerboard="0"
     inkscape:deskcolor="#505050"
     showgrid="false"
     inkscape:zoom="1.4796209"
     inkscape:cx="421.05379"
     inkscape:cy="496.073"
     inkscape:window-width="1920"
     inkscape:window-height="1017"
     inkscape:window-x="1912"
     inkscape:window-y="-8"
     inkscape:window-maximized="1"
     inkscape:current-layer="Layer_1" />
  <title
     id="title2">file-o</title>
  <path
     d="M46.92,0H18.74A3.44,3.44,0,0,0,15.3,3.43V52.57A3.44,3.44,0,0,0,18.74,56H53.26a3.44,3.44,0,0,0,3.44-3.43V10.62Zm.81,5.14L52,9.79H47.73Zm6.08,47.43a.55.55,0,0,1-.55.55H18.74a.55.55,0,0,1-.55-.55V3.43a.54.54,0,0,1,.55-.54H44.85v8.35a1.45,1.45,0,0,0,1.44,1.44h7.52Z"
     id="path4" />
  <rect
     style="fill:#000000;stroke-width:0.101739"
     id="rect167"
     width="28.799999"
     height="2.408602"
     x="21.42"
     y="19" />
  <rect
     style="fill:#000000;stroke-width:0.101739"
     id="rect231"
     width="28.799999"
     height="2.408602"
     x="21.42"
     y="27.549999" />
  <rect
     style="fill:#000000;stroke-width:0.101739"
     id="rect233"
     width="28.799999"
     height="2.408602"
     x="21.42"
     y="36.099998" />
  <rect
     style="fill:#000000;stroke-width:0.101739"
     id="rect239"
     width="28.799999"
     height="2.408602"
     x="21.42"
     y="44.649998" />
  <metadata
     id="metadata243">
    <rdf:RDF>
      <cc:Work
         rdf:about="">
        <dc:title>file-o</dc:title>
      </cc:Work>
    </rdf:RDF>
  </metadata>
</svg>
