<?xml version="1.0" encoding="UTF-8" standalone="no"?>
<!-- Uploaded to: SVG Repo, www.svgrepo.com, Generator: SVG Repo Mixer Tools -->

<svg
   fill="currentColor"
   width="800px"
   height="800px"
   viewBox="0 -8 72 72"
   id="Layer_1"
   data-name="Layer 1"
   version="1.1"
   sodipodi:docname="file-folder.svg"
   xml:space="preserve"
   inkscape:version="1.2.1 (9c6d41e410, 2022-07-14)"
   xmlns:inkscape="http://www.inkscape.org/namespaces/inkscape"
   xmlns:sodipodi="http://sodipodi.sourceforge.net/DTD/sodipodi-0.dtd"
   xmlns="http://www.w3.org/2000/svg"
   xmlns:svg="http://www.w3.org/2000/svg"><defs
     id="defs9" /><sodipodi:namedview
     id="namedview7"
     pagecolor="#505050"
     bordercolor="#eeeeee"
     borderopacity="1"
     inkscape:showpageshadow="0"
     inkscape:pageopacity="0"
     inkscape:pagecheckerboard="0"
     inkscape:deskcolor="#505050"
     showgrid="false"
     inkscape:zoom="1.04625"
     inkscape:cx="308.72162"
     inkscape:cy="355.55556"
     inkscape:window-width="1920"
     inkscape:window-height="1017"
     inkscape:window-x="1912"
     inkscape:window-y="-8"
     inkscape:window-maximized="1"
     inkscape:current-layer="Layer_1" /><title
     id="title2">file-o</title><path
     fill="#000000"
     d="m 31.888172,10.056336 1.09896,-1.0989601 c -0.291475,-0.291426 -0.686786,-0.455122 -1.09896,-0.455073 z m 4.144086,4.144086 -1.098959,1.09896 c 0.291475,0.291426 0.686786,0.455121 1.098959,0.455072 z m 19.330396,30.877383 -39.090899,0 v 3.108065 l 39.090899,0 z m -40.555664,-1.495178 0,-30.543496 h -3.108065 l 0,30.543496 z m 1.450268,-31.972259 15.630914,0 V 8.5023029 l -15.630914,0 z m 14.531955,-0.455073 4.144086,4.144087 2.197919,-2.19792 -4.144086,-4.1440861 z m 26.038207,6.049428 0,26.377904 h 3.108065 l 0,-26.377904 z m -20.795162,-1.450269 19.323388,0 v -3.108065 l -19.323388,0 z M 16.271755,45.077805 c -1.035115,0 -1.464765,-0.490475 -1.464765,-1.495178 h -3.108065 c 0,3.146915 1.425915,4.603243 4.57283,4.603243 z m 39.090899,3.108065 c 3.146916,0 4.572831,-1.456328 4.572831,-4.603243 H 56.82742 c 0,1.032636 -0.496645,1.495178 -1.464766,1.495178 z m 4.572831,-30.981147 c 0,-3.146916 -1.432924,-4.558334 -4.579839,-4.558334 v 3.108065 c 1.097154,0 1.471774,0.482148 1.471774,1.450269 z M 14.80699,13.039131 c 0,-1.029264 0.386138,-1.428763 1.450268,-1.428763 V 8.5023029 c -3.146915,0 -4.558333,1.389913 -4.558333,4.5368281 z"
     id="path77"
     sodipodi:nodetypes="cccccccccccccccccccccccccccccccccccccccccccccccccccccccccc"
     style="stroke-width:0.259005" /></svg>
