<?xml version="1.0" encoding="UTF-8" standalone="no"?>
<!-- Uploaded to: SVG Repo, www.svgrepo.com, Generator: SVG Repo Mixer Tools -->

<svg
   fill="currentColor"
   width="800px"
   height="800px"
   viewBox="0 -8 72 72"
   id="Layer_1"
   data-name="Layer 1"
   version="1.1"
   sodipodi:docname="file-audio.svg"
   inkscape:version="1.2.1 (9c6d41e410, 2022-07-14)"
   xml:space="preserve"
   xmlns:inkscape="http://www.inkscape.org/namespaces/inkscape"
   xmlns:sodipodi="http://sodipodi.sourceforge.net/DTD/sodipodi-0.dtd"
   xmlns="http://www.w3.org/2000/svg"
   xmlns:svg="http://www.w3.org/2000/svg"
   xmlns:rdf="http://www.w3.org/1999/02/22-rdf-syntax-ns#"
   xmlns:cc="http://creativecommons.org/ns#"
   xmlns:dc="http://purl.org/dc/elements/1.1/"><defs
     id="defs9"><inkscape:path-effect
       effect="powerstroke"
       id="path-effect338"
       is_visible="true"
       lpeversion="1"
       offset_points="1.9808749,0.043010753"
       not_jump="true"
       sort_points="true"
       interpolator_type="CentripetalCatmullRom"
       interpolator_beta="0.75"
       start_linecap_type="round"
       linejoin_type="spiro"
       miter_limit="4"
       scale_width="1"
       end_linecap_type="round" /><inkscape:path-effect
       effect="simplify"
       id="path-effect336"
       is_visible="true"
       lpeversion="1"
       steps="1"
       threshold="0.0047745358"
       smooth_angles="0"
       helper_size="0"
       simplify_individual_paths="false"
       simplify_just_coalesce="false"
       step="1" /></defs><sodipodi:namedview
     id="namedview7"
     pagecolor="#505050"
     bordercolor="#eeeeee"
     borderopacity="1"
     inkscape:showpageshadow="0"
     inkscape:pageopacity="0"
     inkscape:pagecheckerboard="0"
     inkscape:deskcolor="#505050"
     showgrid="false"
     inkscape:zoom="0.523125"
     inkscape:cx="104.1816"
     inkscape:cy="340.26284"
     inkscape:window-width="1920"
     inkscape:window-height="1017"
     inkscape:window-x="1912"
     inkscape:window-y="-8"
     inkscape:window-maximized="1"
     inkscape:current-layer="Layer_1" /><title
     id="title2">file-o</title><path
     d="M46.92,0H18.74A3.44,3.44,0,0,0,15.3,3.43V52.57A3.44,3.44,0,0,0,18.74,56H53.26a3.44,3.44,0,0,0,3.44-3.43V10.62Zm.81,5.14L52,9.79H47.73Zm6.08,47.43a.55.55,0,0,1-.55.55H18.74a.55.55,0,0,1-.55-.55V3.43a.54.54,0,0,1,.55-.54H44.85v8.35a1.45,1.45,0,0,0,1.44,1.44h7.52Z"
     id="path4" /><path
     style="fill:#000000;stroke:none"
     d="m 242.7718,481.72043 103.22581,82.19833"
     id="path342" /><metadata
     id="metadata496"><rdf:RDF><cc:Work
         rdf:about=""><dc:title>file-o</dc:title></cc:Work></rdf:RDF></metadata><path
     d="M 46.400555,39.579186 V 26.077861 c 0,-1.322606 -1.189098,-2.327734 -2.493289,-2.107483 l -11.755212,1.985335 c -1.0285,0.173699 -1.781391,1.064417 -1.781391,2.10747 v 9.513336 c -0.341564,-0.08784 -0.699651,-0.134651 -1.068659,-0.134651 -2.360818,0 -4.274639,1.913862 -4.274639,4.274638 0,2.360775 1.913821,4.274637 4.274639,4.274637 2.360818,0 4.274638,-1.913862 4.274638,-4.274637 V 28.9665 l 9.617934,-1.624362 v 8.097061 c -0.341543,-0.08785 -0.69965,-0.134651 -1.068658,-0.134651 -2.360777,0 -4.274639,1.913863 -4.274639,4.274638 0,2.360776 1.913862,4.274638 4.274639,4.274638 2.360775,0 4.274637,-1.913862 4.274637,-4.274638 z"
     fill="#000000"
     id="path678"
     style="stroke-width:1.06865" /></svg>
